<svg xmlns="http://www.w3.org/2000/svg" version="1.1" xmlns:xlink="http://www.w3.org/1999/xlink" xmlns:svgjs="http://svgjs.dev/svgjs" width="1000" height="625" viewBox="0 0 1000 625"><g transform="matrix(1,0,0,1,0,0)"><svg viewBox="0 0 512 320" data-background-color="#ffffff" preserveAspectRatio="xMidYMid meet" height="625" width="1000" xmlns="http://www.w3.org/2000/svg" xmlns:xlink="http://www.w3.org/1999/xlink"><defs></defs><g id="tight-bounds" transform="matrix(1,0,0,1,0,0)"><svg viewBox="0 0 512 320" height="320" width="512"><g><svg></svg></g><g><svg viewBox="0 0 512 320" height="320" width="512"><g><path d="M96 160c0-88.366 71.634-160 160-160 88.366 0 160 71.634 160 160 0 88.366-71.634 160-160 160-88.366 0-160-71.634-160-160zM256 307.796c81.625 0 147.796-66.17 147.796-147.796 0-81.625-66.17-147.796-147.796-147.796-81.625 0-147.796 66.17-147.796 147.796 0 81.625 66.17 147.796 147.796 147.796z" fill="#320046" data-fill-palette-color="tertiary"></path></g><g transform="matrix(1,0,0,1,128,97.41415304766926)"><svg viewBox="0 0 256 125.17169390466147" height="125.17169390466147" width="256"><g><svg viewBox="0 0 486.5222797296083 237.8860073285649" height="125.17169390466147" width="256"><g><rect width="11.597000359660106" height="237.8860073285649" x="286.3586396849741" y="0" fill="#320046" opacity="1" stroke-width="0" stroke="transparent" fill-opacity="1" class="rect-zb-0" data-fill-palette-color="primary" rx="1%" id="zb-0" data-palette-color="#320046"></rect></g><g transform="matrix(1,0,0,1,0,0.5917562371357263)"><svg viewBox="0 0 256 236.70249485429343" height="236.70249485429343" width="256"><g><svg viewBox="0 0 256 236.70249485429343" height="236.70249485429343" width="256"><g><svg viewBox="0 0 256 128.59689119170986" height="128.59689119170986" width="256"><g transform="matrix(1,0,0,1,0,0)"><svg width="256" viewBox="0.66 -37.7 94.23 47.34" height="128.59689119170986" data-palette-color="#320046"><g class="undefined-text-0" data-fill-palette-color="primary" id="text-0"><path d="M21.8 0L21.8-6.69 25.49-6.69 23.83-12.01 12.45-12.01 10.79-6.69 14.7-6.69 14.7 0 0.66 0 0.66-6.69 3.42-6.69 13.5-37.01 23.29-37.01 33.15-6.69 35.84-6.69 35.84 0 21.8 0ZM18.09-30.3L14.38-18.26 21.85-18.26 18.09-30.3ZM52.44 6.45L52.49 0.29Q49.36-0.34 46.71-2.04 44.06-3.74 42.12-6.23 40.18-8.72 39.1-11.85 38.01-14.99 38.01-18.51L38.01-18.51Q38.01-21.17 38.64-23.62 39.28-26.07 40.43-28.21 41.57-30.35 43.2-32.09 44.82-33.84 46.81-35.08 48.8-36.33 51.1-37.01 53.39-37.7 55.91-37.7L55.91-37.7Q58.42-37.7 60.73-37.01 63.03-36.33 65.02-35.08 67.01-33.84 68.64-32.09 70.26-30.35 71.42-28.21 72.58-26.07 73.22-23.62 73.85-21.17 73.85-18.51L73.85-18.51Q73.85-14.94 72.73-11.77 71.6-8.59 69.61-6.08 67.62-3.56 64.89-1.88 62.16-0.2 58.96 0.37L58.96 0.37Q59.71 0.68 60.46 1.06 61.2 1.44 61.96 1.77 62.72 2.1 63.46 2.33 64.21 2.56 64.99 2.59L64.99 2.59Q65.74 2.59 66.46 2.39 67.19 2.2 67.77 1.78 68.36 1.37 68.78 0.71 69.21 0.05 69.36-0.9L69.36-0.9 74.8 1.81Q74.58 3.59 73.79 5.03 73 6.47 71.75 7.5 70.51 8.52 68.92 9.08 67.33 9.64 65.55 9.64L65.55 9.64Q64.11 9.64 62.66 9.09 61.2 8.54 59.85 7.9 58.49 7.25 57.3 6.7 56.1 6.15 55.2 6.15L55.2 6.15Q54.81 6.15 54.5 6.14 54.2 6.13 53.9 6.14 53.61 6.15 53.26 6.21 52.9 6.27 52.44 6.45L52.44 6.45ZM55.91-7.01L55.91-7.01Q58.03-7.01 59.8-7.92 61.57-8.84 62.84-10.41 64.11-11.99 64.8-14.07 65.5-16.16 65.5-18.51L65.5-18.51Q65.5-20.87 64.79-22.97 64.08-25.07 62.8-26.65 61.52-28.22 59.76-29.14 58.01-30.05 55.91-30.05L55.91-30.05Q53.81-30.05 52.05-29.14 50.29-28.22 49.02-26.65 47.75-25.07 47.03-22.97 46.31-20.87 46.31-18.51L46.31-18.51Q46.31-16.16 47.03-14.07 47.75-11.99 49.02-10.41 50.29-8.84 52.05-7.92 53.81-7.01 55.91-7.01ZM79.05-30.32L79.05-37.01 94.89-37.01 94.89-30.32 90.99-30.32 90.99-6.69 94.89-6.69 94.89 0 79.05 0 79.05-6.69 82.88-6.69 82.88-30.32 79.05-30.32Z" fill="#320046" data-fill-palette-color="primary"></path></g></svg></g></svg></g><g transform="matrix(1,0,0,1,105.70240000000001,158.95553087668395)"><svg viewBox="0 0 150.2976 77.74696397760948" height="77.74696397760948" width="150.2976"><g transform="matrix(1,0,0,1,0,0)"><svg width="150.2976" viewBox="2.76 -37.7 74.14 38.36000000000001" height="77.74696397760948" data-palette-color="#320046"><path d="M26.15-30.3L26.15-37.01 40.21-37.01 40.21-30.3 37.21-30.3 37.21 0 29.1 0 13.7-23.93 13.7-6.69 16.8-6.69 16.8 0 2.76 0 2.76-6.69 5.81-6.69 5.81-30.3 2.81-30.3 2.81-37.01 13.99-37.01 29.3-12.77 29.3-30.3 26.15-30.3ZM76-25.76L68.45-25.76Q67.09-27.71 65.99-28.53 64.89-29.35 63.62-29.7 62.35-30.05 60.96-30.05L60.96-30.05Q58.91-30.05 57.15-29.14 55.39-28.22 54.11-26.65 52.83-25.07 52.1-22.99 51.36-20.9 51.36-18.55L51.36-18.55Q51.36-16.19 52.08-14.1 52.81-12.01 54.07-10.45 55.34-8.89 57.1-7.97 58.86-7.06 60.96-7.06L60.96-7.06Q62.42-7.06 63.69-7.53 64.96-8.01 66-8.79 67.04-9.57 67.82-10.58 68.6-11.6 69.04-12.7L69.04-12.7 76.9-10.5Q76.14-8.11 74.68-6.07 73.22-4.03 71.15-2.54 69.09-1.05 66.51-0.2 63.94 0.66 60.96 0.66L60.96 0.66Q58.44 0.66 56.15-0.02 53.85-0.71 51.87-1.95 49.88-3.2 48.25-4.96 46.63-6.71 45.48-8.85 44.33-10.99 43.7-13.44 43.06-15.89 43.06-18.55L43.06-18.55Q43.06-22.53 44.46-26.01 45.85-29.49 48.26-32.09 50.68-34.69 53.94-36.19 57.2-37.7 60.96-37.7L60.96-37.7Q63.96-37.7 66.01-36.95 68.06-36.21 70.53-34.01L70.53-34.01 76-34.01 76-25.76Z" opacity="1" transform="matrix(1,0,0,1,0,0)" fill="#320046" class="undefined-text-1" data-fill-palette-color="secondary" id="text-1"></path></svg></g></svg></g></svg></g></svg></g><g transform="matrix(1,0,0,1,328.3142797296083,39.81514910751194)"><svg viewBox="0 0 158.208 158.255709113541" height="158.255709113541" width="158.208"><g><svg xmlns="http://www.w3.org/2000/svg" xmlns:xlink="http://www.w3.org/1999/xlink" version="1.1" x="0" y="0" viewBox="5.088097719829461 4.6561802361725615 66.54412884487954 66.564195854124" enable-background="new 0 0 75 75" xml:space="preserve" height="158.255709113541" width="158.208" class="icon-icon-0" data-fill-palette-color="accent" id="icon-0"><g fill="#320046" data-fill-palette-color="accent"><g fill="#320046" data-fill-palette-color="accent"><g fill="#320046" data-fill-palette-color="accent"><path d="M14.291 23.127l-1.135 2.508c1.796 1.206 3.72 2.119 5.757 2.738 0.263-1.003 0.713-1.983 1.072-2.967 0.146-0.398-0.252-1.393 0.857-0.933 0.088-0.273 0.301-0.583 0.236-0.814-0.134-0.477-0.427-0.908-0.633-1.367-0.095-0.21-0.237-0.468-0.189-0.664 0.38-1.584-0.036-3.172 0.041-4.756 0.006-0.128-0.278-0.28-0.439-0.403-0.185-0.141-0.395-0.249-0.574-0.396-1.463-1.198-2.426-1.385-3.374-0.132-0.15 0.199-0.342 0.378-0.545 0.522-0.257 0.181-0.546 0.317-0.822 0.472-0.038-0.375-0.18-0.78-0.085-1.118 0.086-0.307 0.402-0.572 0.664-0.801 0.416-0.365 0.884-0.671 1.306-1.031 0.252-0.215 0.657-0.461 0.264-0.834-0.083-0.08-0.534 0.103-0.719 0.271-1.99 1.808-3.815 3.777-5.269 6.041-0.494 0.769-0.956 1.545-1.386 2.328L14.291 23.127z" fill="#320046" data-fill-palette-color="accent"></path></g><g fill="#320046" data-fill-palette-color="accent"><path d="M42.123 70.074c0.229-1.125-1.058-2.229-0.039-3.361 0.114-0.125 0.1-0.384 0.111-0.584 0.045-0.854-0.042-1.737 0.143-2.56 0.435-1.93-0.199-3.083-2.059-3.853-0.734-0.304-1.191-1.295-1.76-1.986-0.47-0.573-0.929-1.158-1.372-1.753-0.136-0.184-0.329-0.47-0.27-0.622 0.149-0.387 0.425-0.726 0.651-1.084-0.604-0.302-0.548-0.758-0.238-1.217 0.247-0.365 0.524-0.724 0.851-1.016 0.798-0.714 0.845-1.546 0.498-2.474-0.14-0.376-0.271-0.755-0.407-1.131-0.316 0.009-0.633 0.019-0.949 0.028-0.189 0.171-0.423 0.519-0.559 0.484-0.883-0.226-1.81-0.594-2.244-1.382-0.983-1.784-3.254-1.469-4.415-2.893-0.024-0.03-0.102-0.041-0.145-0.029-1.508 0.432-2.595-0.568-3.797-1.139-0.696-0.33-1.188-0.803-1.264-1.716-0.054-0.651-0.482-1.281-0.789-1.898-0.199-0.398-0.511-0.739-0.717-1.134-0.487-0.935-0.935-1.89-1.418-2.825-0.083-0.163-0.263-0.276-0.398-0.412-0.117 0.185-0.246 0.365-0.343 0.559-0.041 0.083 0.001 0.202-0.019 0.3-0.018 0.092-0.068 0.177-0.105 0.265-0.109-0.091-0.282-0.163-0.317-0.276-0.148-0.481-0.236-0.98-0.384-1.461-0.101-0.328-0.177-0.737-0.411-0.937-0.652-0.556-1.007-1.2-1.184-1.884-2.671-0.345-5.112-1.27-7.284-2.765l-1.398 3.093-2.875-6.104c-2.17 5.689-2.716 11.709-1.477 18.058 1.486 7.615 5.257 13.979 11.167 18.969 6.647 5.611 14.416 8.19 23.113 7.858 1.215-0.045 2.419-0.38 3.628-0.588-0.336-0.022-0.68-0.011-0.996-0.099C42.442 70.447 42.1 70.183 42.123 70.074z" fill="#320046" data-fill-palette-color="accent"></path></g><g fill="#320046" data-fill-palette-color="accent"><path d="M43.697 70.597c-0.018 0.002-0.032 0.007-0.048 0.009 0.019 0.001 0.037 0.001 0.057 0.004L43.697 70.597z" fill="#320046" data-fill-palette-color="accent"></path></g></g><g fill="#320046" data-fill-palette-color="accent"><g fill="#320046" data-fill-palette-color="accent"><path d="M44.946 47.787c0.211-0.075 0.406-0.112 0.591-0.123-0.074-6.17-2.747-10.923-5.274-14.042-0.16 0.211-0.374 0.392-0.655 0.544-0.482 0.262-0.881 0.676-1.346 0.978-0.671 0.436-0.97 0.965-0.732 1.79 0.166 0.577 0.24 1.188 0.281 1.788 0.015 0.211-0.189 0.438-0.294 0.657-0.169-0.144-0.392-0.257-0.493-0.438-0.145-0.258-0.258-0.562-0.282-0.854-0.063-0.775-0.244-1.301-1.202-1.409-0.676-0.077-1.391-0.661-2.016-0.203-0.136 0.101-0.265 0.191-0.39 0.268-0.659 0.927-1.53 1.769-2.688 2.382l1.037 1.396-2.849-0.192c-0.024 0.221-0.046 0.441-0.068 0.662-0.089 0.891 0.739 2.294 1.479 2.441 0.47 0.094 1.037 0.096 1.461-0.089 0.348-0.151 0.552-0.638 0.815-0.979 0.061-0.08 0.091-0.231 0.161-0.249 0.465-0.114 0.937-0.201 1.407-0.298-0.063 0.305-0.119 0.611-0.191 0.913-0.07 0.292-0.143 0.586-0.24 0.87-0.383 1.129-0.386 1.125 0.883 1.235 0.25 0.022 0.51 0.034 0.744 0.113 0.482 0.162 0.788 0.447 0.576 1.025-0.086 0.235-0.147 0.487-0.17 0.734-0.11 1.202 0.456 1.75 1.791 1.754 0.316-0.01 0.633-0.02 0.949-0.028 0.407 0.23 0.763 0.638 1.188-0.065 0.544-0.895 1.267-1.56 2.438-0.945 0.697-0.401 1.291-0.176 1.931 0.21C44.101 47.821 44.615 47.908 44.946 47.787z" fill="#320046" data-fill-palette-color="accent"></path></g><g fill="#320046" data-fill-palette-color="accent"><path d="M70.885 31.56c-0.04-0.202-0.436-0.513-0.591-0.474-0.293 0.074-0.677 0.317-0.766 0.577-0.207 0.612-1.774 1.397-1.826 1.096-0.102-0.593-0.058-0.86-0.04-1.463 0.003-0.125 0.266-0.335 0.423-0.349 0.866-0.074 1.17-0.32 0.767-1.008-0.668-1.141 0.009-1.999 0.508-2.736 0.279-0.413 0.306-0.575 0.142-0.933-0.689-1.502-1.373-3.008-2.062-4.512-0.062-0.137-0.141-0.268-0.216-0.4-1.592-2.786-3.54-5.29-5.92-7.445-0.228-0.205-0.562-0.291-0.847-0.433-0.112 0.374-0.336 0.759-0.302 1.118 0.028 0.292 0.373 0.55 0.569 0.828 0.054 0.076 0.128 0.183 0.107 0.25-0.019 0.063-0.188 0.15-0.228 0.126-0.823-0.5-1.408 0.431-2.087 0.366-1.019-0.097-1.347 0.444-1.589 1.23-0.119 0.385-0.243 0.772-0.421 1.13-0.05 0.102-0.342 0.193-0.447 0.14-1.038-0.521-1.803-1.228-1.807-2.525-0.001-0.412-0.219-0.83-0.37-1.233-0.121-0.324-0.243-0.588 0.299-0.573 0.07 0.002 0.178-0.266 0.218-0.421 0.428-1.654-1.274-2.442-1.593-3.831-0.12-0.521-0.86-0.91-1.346-1.328-0.141-0.121-0.377-0.128-0.568-0.193-0.285-0.098-0.568-0.202-0.815-0.29 0.336-0.271 0.659-0.532 0.983-0.792-0.388-0.205-0.763-0.442-1.168-0.603-0.368-0.146-0.823-0.123-1.146-0.325-0.634-0.396-1.821-0.603-1.957-0.688-0.165-0.105-0.372-0.195-0.562-0.197-0.244-0.002-1.476-0.307-1.5-0.315-0.281-0.104-0.577-0.188-0.876-0.231-0.998-0.146-1.995-0.333-2.998-0.396-4.959-0.305-9.782 0.368-14.425 2.158-1.222 0.472-2.392 1.078-3.577 1.641-0.1 0.048-0.133 0.235-0.197 0.358 0.093 0.035 0.184 0.091 0.28 0.101 0.749 0.075 1.528 0.039 2.237 0.247 0.447 0.131 0.813 0.195 1.284 0.147 1.2-0.122 2.388-0.598 3.617-0.239 0.614 0.18 1.344 0.245 1.8 0.626 0.724 0.607 0.649 0.685 1.103 0.774 0.169 0.033 0.454 0.151 0.46 0.244 0.03 0.483 0.136 0.481 0.513 0.216 0.379-0.266 0.874-0.625 1.264-0.569 0.831 0.119 1.726 0.333 2.41 0.785 0.696 0.461 1.001 0.008 1.431-0.248 0.511-0.305 0.935-0.651 0.4-1.322-0.06-0.076 0.209-0.476 0.394-0.657 0.122-0.12 0.365-0.118 0.555-0.17 0.048 0.224 2.202 2.091 2.588 1.864 0.16-0.096 0.46-0.011 0.673 0.062 0.094 0.032 0.128 0.238 0.19 0.365-0.487 0.153-2.604 1.273-3.101 1.833-0.285 0.321-0.683 0.639-1.085 0.742-1.436 0.364-2.49 1.286-3.504 2.265-0.378 0.365-0.179 2.516 0.192 2.522 1.328 0.02 1.899 1.302 2.991 1.645 0.655 0.205 0.732 0.592 0.594 1.155-0.048 0.19-0.147 0.459-0.062 0.576 0.278 0.383 0.631 0.712 0.955 1.062 0.233-0.354 0.647-0.699 0.663-1.062 0.033-0.793 0.097-1.395 1.008-1.694 0.299-0.098 0.691-0.808 0.592-1.061-0.411-1.039 0.292-1.82 0.464-2.709 0.179-0.923 0.243-0.911 1.209-0.688 0.818 0.19 1.869 1.183 1.646 1.743-0.295 0.736 0.219 1.058 0.558 1.344 0.154 0.131 0.753-0.25 1.143-0.418 0.082-0.036 0.122-0.158 0.192-0.229 0.271-0.278 0.374-0.13 0.512 0.156 0.512 1.059 0.369 2.389 1.301 3.276 0.479-0.039 0.966-0.061 1.457-0.061 2.556 0 4.992 0.559 7.249 1.661l0.925-3.267 7.321 10.958-10.095-1.151 0.749-2.65c-2.921-1.383-6.06-2.084-9.33-2.084-0.607 0-1.2 0.025-1.777 0.069 0.069 0.053 0.162 0.076 0.272 0.045 0.024 0.343 0.013 0.693 0.086 1.025 0.053 0.236 0.187 0.475 0.341 0.666 0.447 0.554 0.242 0.918-0.312 1.187-0.148 0.072-0.33 0.079-0.495 0.115 0.031-0.14 0.049-0.286 0.099-0.419 0.048-0.129 0.13-0.244 0.196-0.366-0.143-0.027-0.309-0.113-0.427-0.07-0.467 0.169-0.914 0.387-1.376 0.57-0.54 0.215-1.033 0.503-1.104 1.13-0.044 0.39-1.923 2.045-2.811 2.966 3.861 3.009 8.551 8.17 8.444 15.437l3.349-0.553-1.981 3.287c0.739 0.45 1.018 1.367 0.633 2.36-0.179 0.462 0.049 0.536 0.384 0.541 0.299 0.004 0.598-0.058 0.897-0.087 0.246-0.023 0.601-0.155 0.724-0.041 1.075 0.997 2.701 0.063 3.777 1.15 0.629 0.637 0.919 1.003 0.327 1.617-1.161 1.207-1.657 2.707-2.265 4.186-0.262 0.637-0.741 1.098-1.472 1.409-1.031 0.438-1.832 1.15-2.555 2.165-0.787 1.104-1.541 2.694-3.376 2.671-0.099-0.001-0.306 0.282-0.283 0.321 0.357 0.576-0.064 0.732-0.464 0.844-1.797 0.496-2.938 1.652-3.52 3.397 0.646-0.058 1.31-0.038 1.934-0.188 10.304-2.476 17.83-8.468 22.662-17.893 0.796-1.553 1.176-3.215 1.628-4.867 0.104-0.377-0.033-0.477-0.297-0.688-0.343-0.275-0.504-0.123-0.762 0.069-0.36 0.27-0.762 0.482-1.138 0.73-0.413 0.271-0.738 0.248-0.991-0.222-0.31-0.57-0.591-1.165-0.974-1.683-0.475-0.642-0.496-1.264-0.264-1.995 0.181-0.57 0.394-1.218 0.289-1.775-0.284-1.511 0.479-2.607 1.202-3.762 0.287-0.454 0.633-0.958 0.673-1.463 0.111-1.383 1.089-1.854 2.146-2.259 0.416-0.159 0.821-0.055 0.869 0.513 0.06 0.707 0.253 1.345 0.926 1.947C71.742 35.075 71.238 33.324 70.885 31.56zM49.673 14.441c-0.057 0.034-0.298-0.083-0.314-0.162-0.156-0.735-0.726-0.739-1.285-0.751-0.6-0.015-1.098-0.012-0.959-0.914 0.05-0.316-0.437-0.712-0.675-1.074-0.537-0.815-1.135-1.479-2.272-1.259-0.323 0.062-0.688-0.131-1.038-0.154-0.643-0.041-0.621-0.611-0.715-0.984C42.362 8.94 42.659 8.567 42.891 8.4c0.214-0.152 0.551-0.129 0.833-0.183-0.135 0.202-0.313 0.389-0.389 0.611-0.056 0.159 0.025 0.365 0.046 0.55 0.143-0.087 0.301-0.158 0.426-0.267 0.187-0.164 0.326-0.396 0.534-0.52 0.154-0.092 0.551-0.094 0.554-0.078 0.227 1.113 1.494 0.802 2.05 1.526 0.559 0.726 1.426 1.17 1.582 2.247 0.056 0.389 0.689 0.683 1.03 1.046 0.188 0.199 0.313 0.454 0.45 0.656C49.854 14.21 49.79 14.37 49.673 14.441z" fill="#320046" data-fill-palette-color="accent"></path></g><g fill="#320046" data-fill-palette-color="accent"><polygon points="43.706,70.609 43.71,70.596 43.697,70.597    " fill="#320046" data-fill-palette-color="accent"></polygon></g></g></g><path d="M21.209 31.595c-3.637 0-6.887-1.019-9.662-3.027l-0.321-0.233-1.145 2.534-4.421-9.39 7.728 2.076-1.044 2.309 0.223 0.153c3.826 2.637 8.221 3.974 13.062 3.974 0 0 0 0 0.001 0 2.068 0 3.894-0.247 5.332-0.539C28.57 30.46 25.03 31.595 21.209 31.595z" fill="#320046" data-fill-palette-color="accent"></path><path d="M57.879 29.147l0.689-2.438-0.243-0.119c-3.079-1.504-6.396-2.268-9.857-2.268-3.586 0-6.71 0.83-8.878 1.623 2.724-1.665 7.165-3.794 12.058-3.794 2.585 0 5.042 0.594 7.306 1.765l0.353 0.183 0.758-2.675 5.765 8.629L57.879 29.147z" fill="#320046" data-fill-palette-color="accent"></path><path d="M43.756 48.949l2.501-0.413 0.003-0.27c0.128-8.344-4.388-14.241-7.396-17.234 3.938 2.604 10.41 8.196 10.084 16.666l-0.016 0.396 2.743-0.453-5.358 8.889L43.756 48.949z" fill="#320046" data-fill-palette-color="accent"></path><path d="M26.173 39.51l2.163-2.233 0.662 0.89 0.243-0.12c2.622-1.3 4.11-3.346 4.944-5.088-0.504 2.05-1.661 4.524-4.295 5.756l-0.36 0.167 0.667 0.898L26.173 39.51z" fill="#320046" data-fill-palette-color="accent"></path><path d="M32.481 24.355c-1.595-1.383-3.271-3.539-3.167-6.445l0.015-0.397-1.104 0.185 2.074-3.459 1.002 2.943-1.094 0.184-0.003 0.271C30.167 20.562 31.31 22.818 32.481 24.355z" fill="#320046" data-fill-palette-color="accent"></path></svg><g></g></g></svg></g></svg></g></svg></g></svg></g></svg><rect width="512" height="320" fill="none" stroke="none" visibility="hidden"></rect></g></svg></g></svg>